<svg xmlns="http://www.w3.org/2000/svg" viewBox="0 0 256 256" role="img" aria-label="Broly - muy feliz"><title>Broly - muy feliz</title>
<defs><linearGradient id="skin" x1="0" y1="0" x2="1" y2="1"><stop offset="0" stop-color="#eac39a"/><stop offset=".55" stop-color="#eac39a"/><stop offset="1" stop-color="#eac39a"/></linearGradient><linearGradient id="hair" x1="0" y1="0" x2=".8" y2="1"><stop offset="0" stop-color="#d8e4a4"/><stop offset=".45" stop-color="#b4d64e"/><stop offset="1" stop-color="#b4d64e"/></linearGradient><linearGradient id="cloth" x1="0" y1="0" x2="0" y2="1"><stop offset="0" stop-color="#d8e4a4"/><stop offset="1" stop-color="#4e9a54"/></linearGradient></defs>
<!-- hombros y uniforme --> <path d="M35 256 Q38 218 69 207 L94 198 L162 198 L187 207 Q218 218 221 256Z" fill="url(#cloth)" stroke="#282231" stroke-width="5"/><path d="M88 204 L105 226 L128 240 L151 226 L168 204" fill="none" stroke="#fff" stroke-width="5" opacity=".8"/><path d="M89 221 Q128 237 167 221" fill="none" stroke="#d8e4a4" stroke-width="6" opacity=".9"/>
<!-- cuello --> <path d="M103 177 L103 211 Q128 230 153 211 L153 177Z" fill="url(#skin)" stroke="#302333" stroke-width="4"/>
<!-- orejas y rostro --> <path d="M67 132 Q48 124 53 145 Q58 159 74 151Z" fill="#eac39a" stroke="#302333" stroke-width="4"/><path d="M189 132 Q208 124 203 145 Q198 159 182 151Z" fill="#eac39a" stroke="#302333" stroke-width="4"/><path d="M72 93 Q73 65 128 63 Q183 65 184 93 L179 148 Q173 183 128 198 Q83 183 77 148Z" fill="url(#skin)" stroke="#302333" stroke-width="5" stroke-linejoin="round"/>
<!-- flequillo posterior --> <path d="M60 101 Q48 70 70 48 Q91 22 128 29 Q170 22 191 52 Q208 75 195 108 L182 88 Q166 78 156 65 L136 91 L121 61 L103 89 L87 75 L74 103Z" fill="url(#hair)" stroke="#24202b" stroke-width="5" stroke-linejoin="round"/>
<path d="M49 89 L34 56 L67 63 L60 29 L92 50 L98 12 L123 46 L147 10 L156 49 L186 25 L178 60 L207 55 L186 91 L168 110 L72 110 Z" fill="url(#hair)" stroke="#24202b" stroke-width="5" stroke-linejoin="round"/><path d="M72 70 L88 79 M109 46 L119 63 M153 47 L163 61 M177 66 L188 67" stroke="#d8e4a4" stroke-width="5" stroke-linecap="round" opacity=".85" fill="none"/>
<!-- cejas --> <path d="M74 113 Q94 131 113 113" fill="none" stroke="#302333" stroke-width="6" stroke-linecap="round"/><path d="M143 113 Q162 131 182 113" fill="none" stroke="#302333" stroke-width="6" stroke-linecap="round"/>
<!-- ojos --> <path d="M80 130 Q94 116 108 130" fill="none" stroke="#302333" stroke-width="6" stroke-linecap="round"/><path d="M148 130 Q162 116 176 130" fill="none" stroke="#302333" stroke-width="6" stroke-linecap="round"/><path d="M80 141 Q94 145 108 141 M148 141 Q162 145 176 141" fill="none" stroke="#fff" stroke-width="2" opacity=".5"/>
<!-- nariz y boca --> <path d="M127 136 L123 151 L131 153" fill="none" stroke="#a76b65" stroke-width="3" stroke-linecap="round"/><ellipse cx="128" cy="178" rx="17" ry="21" fill="#632d3c" stroke="#302333" stroke-width="4"/><path d="M113 178 Q128 187 143 178" fill="none" stroke="#f5a0aa" stroke-width="4"/><path d="M75 157 l14 -3 M167 154 l14 3" stroke="#ef8e91" stroke-width="4" stroke-linecap="round" opacity=".7"/>
<!-- reflejos de pelo y contorno facial --> <path d="M76 101 Q82 83 99 77 M158 76 Q175 80 181 99" fill="none" stroke="#d8e4a4" stroke-width="4" stroke-linecap="round" opacity=".85"/>
</svg>
