<svg xmlns="http://www.w3.org/2000/svg" viewBox="0 0 256 256" role="img" aria-label="Bills - sorprendido"><title>Bills - sorprendido</title>
<defs><linearGradient id="skin" x1="0" y1="0" x2="1" y2="1"><stop offset="0" stop-color="#bd9bdf"/><stop offset=".55" stop-color="#9a72c7"/><stop offset="1" stop-color="#9a72c7"/></linearGradient><linearGradient id="hair" x1="0" y1="0" x2=".8" y2="1"><stop offset="0" stop-color="#b28be2"/><stop offset=".45" stop-color="#6b4ca1"/><stop offset="1" stop-color="#6b4ca1"/></linearGradient><linearGradient id="cloth" x1="0" y1="0" x2="0" y2="1"><stop offset="0" stop-color="#b28be2"/><stop offset="1" stop-color="#7048a7"/></linearGradient></defs>
<!-- hombros y uniforme --> <path d="M35 256 Q38 218 69 207 L94 198 L162 198 L187 207 Q218 218 221 256Z" fill="url(#cloth)" stroke="#282231" stroke-width="5"/><path d="M88 204 L105 226 L128 240 L151 226 L168 204" fill="none" stroke="#fff" stroke-width="5" opacity=".8"/><path d="M89 221 Q128 237 167 221" fill="none" stroke="#b28be2" stroke-width="6" opacity=".9"/>
<!-- cuello --> <path d="M103 177 L103 211 Q128 230 153 211 L153 177Z" fill="url(#skin)" stroke="#302333" stroke-width="4"/>
<!-- orejas y rostro --> <path d="M65 105 L52 66 L88 86Z" fill="#6b4ca1" stroke="#302333" stroke-width="4"/><path d="M191 105 L204 66 L168 86Z" fill="#6b4ca1" stroke="#302333" stroke-width="4"/><path d="M72 93 Q73 65 128 63 Q183 65 184 93 L179 148 Q173 183 128 198 Q83 183 77 148Z" fill="url(#skin)" stroke="#302333" stroke-width="5" stroke-linejoin="round"/>
<!-- flequillo posterior --> <path d="M60 101 Q48 70 70 48 Q91 22 128 29 Q170 22 191 52 Q208 75 195 108 L182 88 Q166 78 156 65 L136 91 L121 61 L103 89 L87 75 L74 103Z" fill="url(#hair)" stroke="#24202b" stroke-width="5" stroke-linejoin="round"/>
<path d="M50 84 L39 45 L75 59 L83 32 L111 49 L128 19 L149 50 L178 31 L183 62 L207 51 L190 91 L171 108 L73 108 Z" fill="url(#hair)" stroke="#24202b" stroke-width="5" stroke-linejoin="round"/><path d="M72 70 L88 79 M109 46 L119 63 M153 47 L163 61 M177 66 L188 67" stroke="#b28be2" stroke-width="5" stroke-linecap="round" opacity=".85" fill="none"/>
<!-- cejas --> <path d="M76 112 Q94 104 111 112" fill="none" stroke="#302333" stroke-width="6" stroke-linecap="round"/><path d="M145 112 Q163 104 180 112" fill="none" stroke="#302333" stroke-width="6" stroke-linecap="round"/>
<!-- ojos --> <ellipse cx="94" cy="129" rx="10" ry="13" fill="#fff" stroke="#302333" stroke-width="4"/><ellipse cx="162" cy="129" rx="10" ry="13" fill="#fff" stroke="#302333" stroke-width="4"/><ellipse cx="96" cy="131" rx="4" ry="7" fill="#342d38"/><ellipse cx="160" cy="131" rx="4" ry="7" fill="#342d38"/><path d="M80 141 Q94 145 108 141 M148 141 Q162 145 176 141" fill="none" stroke="#fff" stroke-width="2" opacity=".5"/>
<!-- nariz y boca --> <path d="M126 137 L121 151 Q128 156 135 151" fill="none" stroke="#67465b" stroke-width="3" stroke-linecap="round"/><ellipse cx="128" cy="178" rx="17" ry="21" fill="#632d3c" stroke="#302333" stroke-width="4"/><path d="M113 178 Q128 187 143 178" fill="none" stroke="#f5a0aa" stroke-width="4"/>
<!-- reflejos de pelo y contorno facial --> <path d="M76 101 Q82 83 99 77 M158 76 Q175 80 181 99" fill="none" stroke="#b28be2" stroke-width="4" stroke-linecap="round" opacity=".85"/>
</svg>
