<svg xmlns="http://www.w3.org/2000/svg" viewBox="0 0 256 256" role="img" aria-label="Videl - normal"><title>Videl - normal</title>
<defs><linearGradient id="skin" x1="0" y1="0" x2="1" y2="1"><stop offset="0" stop-color="#f3c39e"/><stop offset=".55" stop-color="#f3c39e"/><stop offset="1" stop-color="#f3c39e"/></linearGradient><linearGradient id="hair" x1="0" y1="0" x2=".8" y2="1"><stop offset="0" stop-color="#3a3a43"/><stop offset=".45" stop-color="#1e1b25"/><stop offset="1" stop-color="#1e1b25"/></linearGradient><linearGradient id="cloth" x1="0" y1="0" x2="0" y2="1"><stop offset="0" stop-color="#3a3a43"/><stop offset="1" stop-color="#cf477e"/></linearGradient></defs>
<!-- hombros y uniforme --> <path d="M35 256 Q38 218 69 207 L94 198 L162 198 L187 207 Q218 218 221 256Z" fill="url(#cloth)" stroke="#282231" stroke-width="5"/><path d="M88 204 L105 226 L128 240 L151 226 L168 204" fill="none" stroke="#fff" stroke-width="5" opacity=".8"/><path d="M89 221 Q128 237 167 221" fill="none" stroke="#3a3a43" stroke-width="6" opacity=".9"/>
<!-- cuello --> <path d="M103 177 L103 211 Q128 230 153 211 L153 177Z" fill="url(#skin)" stroke="#302333" stroke-width="4"/>
<!-- orejas y rostro --> <path d="M67 132 Q48 124 53 145 Q58 159 74 151Z" fill="#f3c39e" stroke="#302333" stroke-width="4"/><path d="M189 132 Q208 124 203 145 Q198 159 182 151Z" fill="#f3c39e" stroke="#302333" stroke-width="4"/><path d="M72 93 Q73 65 128 63 Q183 65 184 93 L179 148 Q173 183 128 198 Q83 183 77 148Z" fill="url(#skin)" stroke="#302333" stroke-width="5" stroke-linejoin="round"/>
<!-- flequillo posterior --> <path d="M60 101 Q48 70 70 48 Q91 22 128 29 Q170 22 191 52 Q208 75 195 108 L182 88 Q166 78 156 65 L136 91 L121 61 L103 89 L87 75 L74 103Z" fill="url(#hair)" stroke="#24202b" stroke-width="5" stroke-linejoin="round"/>
<path d="M48 86 Q43 36 88 31 Q126 13 164 36 Q200 50 194 94 L185 124 L170 91 L76 91 L63 123 Z" fill="url(#hair)" stroke="#24202b" stroke-width="5" stroke-linejoin="round"/><path d="M72 59 Q103 27 142 39" stroke="#3a3a43" stroke-width="5" stroke-linecap="round" opacity=".85" fill="none"/>
<!-- cejas --> <path d="M76 118 Q94 108 111 118" fill="none" stroke="#302333" stroke-width="6" stroke-linecap="round"/><path d="M145 118 Q163 108 180 118" fill="none" stroke="#302333" stroke-width="6" stroke-linecap="round"/>
<!-- ojos --> <ellipse cx="94" cy="130" rx="10" ry="9" fill="#fff" stroke="#302333" stroke-width="4"/><ellipse cx="162" cy="130" rx="10" ry="9" fill="#fff" stroke="#302333" stroke-width="4"/><ellipse cx="97" cy="131" rx="5" ry="7" fill="#302333"/><ellipse cx="159" cy="131" rx="5" ry="7" fill="#302333"/><path d="M80 141 Q94 145 108 141 M148 141 Q162 145 176 141" fill="none" stroke="#fff" stroke-width="2" opacity=".5"/>
<!-- nariz y boca --> <path d="M127 136 L123 151 L131 153" fill="none" stroke="#a76b65" stroke-width="3" stroke-linecap="round"/><path d="M111 179 Q128 184 145 179" fill="none" stroke="#713646" stroke-width="5" stroke-linecap="round"/>
<!-- reflejos de pelo y contorno facial --> <path d="M76 101 Q82 83 99 77 M158 76 Q175 80 181 99" fill="none" stroke="#3a3a43" stroke-width="4" stroke-linecap="round" opacity=".85"/>
</svg>
